<?xml version="1.0" encoding="UTF-8" standalone="no"?><!DOCTYPE svg PUBLIC "-//W3C//DTD SVG 1.1//EN" "http://www.w3.org/Graphics/SVG/1.1/DTD/svg11.dtd"><svg width="100%" height="100%" viewBox="0 0 52 52" version="1.1" xmlns="http://www.w3.org/2000/svg" xmlns:xlink="http://www.w3.org/1999/xlink" xml:space="preserve" xmlns:serif="http://www.serif.com/" style="fill-rule:evenodd;clip-rule:evenodd;stroke-linejoin:round;stroke-miterlimit:2;"><path d="M29.187,1.562c0.313,0.013 0.563,0.291 0.705,0.554c0.199,0.369 0.316,0.778 0.423,1.187c0.279,1.065 0.45,2.158 0.608,3.253c0.377,2.604 0.628,5.228 0.857,7.845c0.296,3.382 0.536,6.765 0.755,10.149l0.001,0.016l5.379,0c0.276,-4.581 0.576,-9.126 1.008,-13.648c0.201,-2.101 0.418,-4.204 0.765,-6.292c0.142,-0.854 0.29,-1.71 0.567,-2.528c0.125,-0.37 0.267,-0.766 0.582,-0.984c0.218,-0.152 0.521,-0.156 0.753,0.015c0.267,0.198 0.403,0.521 0.519,0.825c0.254,0.664 0.401,1.363 0.54,2.061c0.391,1.968 0.636,3.97 0.865,5.968c0.48,4.169 0.828,8.351 1.149,12.538c0.051,0.669 0.102,1.338 0.151,2.006l0.003,0.039l5.78,0l0.081,0.008c0.079,0.025 0.156,0.058 0.212,0.118c0.038,0.04 0.067,0.087 0.086,0.138c0.025,0.069 0.021,0.089 0.024,0.161c-0.264,4.957 -0.557,9.928 -0.998,14.886c-0.176,1.989 -0.372,3.972 -0.656,5.94c-0.148,1.022 -0.303,2.05 -0.595,3.036c-0.094,0.319 -0.197,0.64 -0.383,0.919c-0.14,0.21 -0.361,0.392 -0.626,0.386c-0.149,-0.003 -0.293,-0.066 -0.408,-0.162c-0.217,-0.183 -0.342,-0.454 -0.451,-0.729c-0.303,-0.768 -0.458,-1.59 -0.609,-2.394c-0.448,-2.377 -0.715,-4.777 -0.97,-7.172c-0.453,-4.257 -0.798,-8.525 -1.116,-12.79c-0.034,-0.462 -0.068,-0.923 -0.102,-1.384l-0.011,-0.153l-5.38,0c-0.254,4.554 -0.537,9.129 -0.922,13.686c-0.212,2.514 -0.442,5.023 -0.806,7.522c-0.152,1.045 -0.309,2.094 -0.607,3.105c-0.092,0.314 -0.196,0.631 -0.369,0.903c-0.198,0.314 -0.597,0.558 -0.977,0.302c-0.263,-0.177 -0.396,-0.482 -0.506,-0.765c-0.222,-0.569 -0.353,-1.172 -0.476,-1.774c-0.248,-1.221 -0.422,-2.455 -0.581,-3.69c-0.343,-2.665 -0.595,-5.344 -0.826,-8.022c-0.323,-3.756 -0.59,-7.512 -0.836,-11.267l0,0l-5.418,0c-0.272,5.065 -0.569,10.076 -1.035,15.14c-0.201,2.176 -0.415,4.357 -0.788,6.498c-0.111,0.634 -0.233,1.268 -0.418,1.883c-0.096,0.317 -0.201,0.636 -0.392,0.908c-0.206,0.291 -0.593,0.479 -0.944,0.245c-0.25,-0.167 -0.386,-0.454 -0.496,-0.723c-0.218,-0.529 -0.349,-1.091 -0.472,-1.652c-0.253,-1.162 -0.432,-2.341 -0.595,-3.521c-0.359,-2.586 -0.624,-5.184 -0.868,-7.782c-0.338,-3.607 -0.621,-7.211 -0.885,-10.843l-0.012,-0.153l-5.38,0c-0.259,4.642 -0.547,9.303 -0.945,13.964c-0.207,2.417 -0.432,4.833 -0.782,7.244c-0.152,1.045 -0.31,2.094 -0.607,3.105c-0.093,0.314 -0.196,0.63 -0.37,0.903c-0.199,0.315 -0.595,0.56 -0.977,0.302c-0.256,-0.172 -0.389,-0.47 -0.499,-0.748c-0.223,-0.564 -0.354,-1.163 -0.476,-1.761c-0.258,-1.26 -0.437,-2.536 -0.6,-3.815c-0.336,-2.63 -0.586,-5.276 -0.814,-7.927c-0.323,-3.756 -0.59,-7.512 -0.836,-11.267l0,0l-5.777,0l-0.082,-0.009c-0.08,-0.025 -0.157,-0.06 -0.214,-0.12c-0.038,-0.041 -0.067,-0.089 -0.085,-0.141c-0.025,-0.07 -0.02,-0.09 -0.022,-0.163c0.321,-4.498 0.668,-8.97 1.144,-13.419c0.209,-1.949 0.437,-3.894 0.758,-5.82c0.16,-0.957 0.329,-1.918 0.623,-2.839c0.106,-0.332 0.219,-0.663 0.429,-0.948c0.133,-0.181 0.326,-0.336 0.561,-0.352c0.134,-0.009 0.27,0.029 0.384,0.101c0.236,0.149 0.378,0.411 0.493,0.68c0.192,0.445 0.311,0.919 0.421,1.393c0.32,1.393 0.513,2.817 0.693,4.239c0.329,2.598 0.567,5.209 0.784,7.82c0.242,2.919 0.447,5.838 0.636,8.754l0.001,0.016l5.38,0c0.272,-4.534 0.574,-9.105 1.007,-13.648c0.201,-2.102 0.419,-4.208 0.765,-6.292c0.143,-0.856 0.294,-1.719 0.567,-2.528c0.123,-0.365 0.263,-0.754 0.569,-0.975c0.221,-0.16 0.531,-0.172 0.772,0.011c0.264,0.2 0.398,0.519 0.513,0.82c0.326,0.852 0.491,1.762 0.652,2.655c0.447,2.466 0.723,4.978 0.985,7.493c0.43,4.145 0.764,8.313 1.068,12.425l0.003,0.039l5.428,0c0.332,-4.619 0.691,-9.24 1.205,-13.846c0.232,-2.085 0.48,-4.18 0.891,-6.227c0.145,-0.723 0.294,-1.454 0.585,-2.13c0.132,-0.308 0.29,-0.623 0.613,-0.755c0.076,-0.031 0.157,-0.046 0.239,-0.046c0.009,0 0.009,0 0.018,0Zm-21.198,23.812c0.298,4.533 0.622,9.067 1.046,13.58c0.232,2.472 0.484,4.945 0.856,7.38c0.154,1.007 0.314,2.016 0.595,2.996c0.071,0.25 0.148,0.5 0.266,0.73l0.001,0.003c0.166,-0.33 0.256,-0.695 0.344,-1.056c0.31,-1.276 0.48,-2.586 0.645,-3.898c0.254,-2.034 0.445,-4.076 0.617,-6.117c0.383,-4.531 0.664,-9.084 0.918,-13.618l-5.288,0Zm24.609,0c0.339,5.161 0.702,10.295 1.229,15.449c0.224,2.19 0.463,4.383 0.842,6.543c0.132,0.755 0.268,1.51 0.511,2.243c0.051,0.154 0.107,0.307 0.181,0.451l0.001,0.003c0.166,-0.33 0.256,-0.694 0.344,-1.056c0.313,-1.293 0.485,-2.62 0.65,-3.945c0.264,-2.114 0.459,-4.23 0.636,-6.349c0.37,-4.443 0.644,-8.88 0.893,-13.339l-5.287,0Zm-12.322,0c0.356,4.904 0.74,9.813 1.272,14.704c0.239,2.19 0.492,4.385 0.893,6.549c0.135,0.732 0.276,1.466 0.521,2.171c0.051,0.146 0.107,0.292 0.18,0.428l0,0.001c0.211,-0.409 0.308,-0.87 0.408,-1.32c0.341,-1.535 0.524,-3.105 0.7,-4.678c0.47,-4.205 0.751,-8.416 1.009,-12.598c0.108,-1.753 0.208,-3.506 0.303,-5.257l-5.286,0Zm24.609,0c0.355,4.888 0.739,9.792 1.266,14.647c0.239,2.205 0.491,4.406 0.898,6.606c0.137,0.738 0.279,1.48 0.527,2.187c0.05,0.141 0.104,0.281 0.175,0.412l0,0.001c0.211,-0.407 0.308,-0.87 0.408,-1.32c0.256,-1.153 0.415,-2.328 0.561,-3.502c0.251,-2.018 0.437,-4.046 0.604,-6.072c0.355,-4.316 0.614,-8.648 0.846,-12.959l-5.285,0Zm-3.682,-23.459c-0.214,0.395 -0.313,0.847 -0.417,1.292c-0.249,1.072 -0.408,2.167 -0.554,3.263c-0.26,1.946 -0.453,3.902 -0.628,5.86c-0.361,4.058 -0.631,8.122 -0.876,12.188l-0.003,0.048l5.282,0c-0.305,-4.129 -0.639,-8.298 -1.072,-12.448c-0.237,-2.274 -0.493,-4.549 -0.871,-6.802c-0.152,-0.91 -0.314,-1.826 -0.583,-2.702c-0.074,-0.24 -0.153,-0.482 -0.275,-0.699c0,0 0,-0.006 -0.003,0Zm-12.04,0.557c-0.215,0.371 -0.318,0.799 -0.425,1.223c-0.346,1.369 -0.543,2.767 -0.733,4.166c-0.373,2.749 -0.642,5.507 -0.888,8.273c-0.25,2.793 -0.466,5.588 -0.668,8.385l-0.003,0.047l5.281,0c-0.267,-4.122 -0.558,-8.197 -0.951,-12.261c-0.213,-2.213 -0.444,-4.422 -0.805,-6.624c-0.142,-0.868 -0.29,-1.739 -0.554,-2.58c-0.067,-0.215 -0.139,-0.431 -0.25,-0.626c0,0 -0.001,-0.009 -0.004,-0.003Zm-12.569,-0.557c-0.157,0.29 -0.244,0.614 -0.329,0.936c-0.312,1.186 -0.48,2.402 -0.642,3.619c-0.266,1.986 -0.461,3.978 -0.638,5.975c-0.356,4.015 -0.623,8.044 -0.866,12.073l-0.003,0.048l5.282,0c-0.342,-4.619 -0.715,-9.302 -1.233,-13.94c-0.235,-2.102 -0.484,-4.212 -0.885,-6.289c-0.132,-0.683 -0.27,-1.371 -0.508,-2.025c-0.05,-0.136 -0.104,-0.271 -0.175,-0.397c0,0 0,-0.006 -0.003,0Zm-12.04,0.557c-0.212,0.366 -0.314,0.788 -0.419,1.2c-0.357,1.399 -0.557,2.836 -0.751,4.275c-0.36,2.674 -0.624,5.366 -0.865,8.058c-0.254,2.836 -0.474,5.675 -0.679,8.514l-0.003,0.047l5.281,0c-0.301,-4.645 -0.623,-9.205 -1.105,-13.802c-0.21,-2 -0.435,-4.006 -0.808,-5.98c-0.124,-0.655 -0.254,-1.313 -0.481,-1.935c-0.048,-0.129 -0.1,-0.258 -0.168,-0.378c0,0 0.001,-0.004 -0.002,0.001Z"/></svg>