<?xml version="1.0" encoding="UTF-8" standalone="no"?><!DOCTYPE svg PUBLIC "-//W3C//DTD SVG 1.1//EN" "http://www.w3.org/Graphics/SVG/1.1/DTD/svg11.dtd"><svg width="100%" height="100%" viewBox="0 0 52 52" version="1.1" xmlns="http://www.w3.org/2000/svg" xmlns:xlink="http://www.w3.org/1999/xlink" xml:space="preserve" xmlns:serif="http://www.serif.com/" style="fill-rule:evenodd;clip-rule:evenodd;stroke-linejoin:round;stroke-miterlimit:2;"><path d="M50.753,24.598c0.072,0.039 0.139,0.085 0.183,0.153c0.043,0.068 0.058,0.148 0.064,0.23c-0.154,5.795 -0.318,11.621 -0.618,17.4c-0.098,1.887 -0.195,3.774 -0.404,5.656c-0.061,0.552 -0.102,1.114 -0.28,1.641c-0.06,0.181 -0.159,0.361 -0.337,0.439c-0.211,0.092 -0.472,-0.003 -0.603,-0.216c-0.119,-0.193 -0.165,-0.423 -0.212,-0.651c-0.117,-0.571 -0.181,-1.154 -0.242,-1.736c-0.255,-2.396 -0.385,-4.801 -0.516,-7.201c-0.27,-4.927 -0.463,-9.867 -0.642,-14.801l-0.005,-0.138l-2.279,0c-0.163,5.883 -0.338,11.841 -0.65,17.745c-0.101,1.92 -0.202,3.842 -0.413,5.743c-0.062,0.555 -0.103,1.118 -0.28,1.654c-0.006,0.018 -0.011,0.035 -0.018,0.051c-0.072,0.197 -0.215,0.396 -0.436,0.428c-0.189,0.029 -0.381,-0.077 -0.487,-0.251c-0.12,-0.197 -0.164,-0.432 -0.21,-0.665c-0.173,-0.869 -0.243,-1.757 -0.32,-2.645c-0.253,-2.908 -0.391,-5.826 -0.527,-8.753c-0.202,-4.368 -0.359,-8.766 -0.502,-13.132l-0.006,-0.175l-2.298,0c-0.152,5.681 -0.314,11.41 -0.613,17.118c-0.098,1.879 -0.195,3.766 -0.407,5.624c-0.06,0.533 -0.103,1.08 -0.277,1.579c-0.06,0.175 -0.161,0.354 -0.343,0.427c-0.208,0.085 -0.461,-0.01 -0.591,-0.221c-0.159,-0.257 -0.201,-0.572 -0.256,-0.886c-0.136,-0.776 -0.21,-1.561 -0.282,-2.347c-0.262,-2.874 -0.408,-5.757 -0.551,-8.631c-0.209,-4.218 -0.375,-8.44 -0.528,-12.663l-2.279,0c-0.139,5.008 -0.294,10.058 -0.521,15.084c-0.106,2.353 -0.217,4.695 -0.413,7.052c-0.075,0.893 -0.138,1.791 -0.32,2.66c-0.065,0.311 -0.134,0.661 -0.425,0.791c-0.21,0.093 -0.472,0.003 -0.605,-0.217c-0.155,-0.255 -0.196,-0.569 -0.248,-0.87c-0.135,-0.783 -0.206,-1.576 -0.276,-2.37c-0.254,-2.894 -0.392,-5.792 -0.526,-8.691c-0.203,-4.352 -0.359,-8.717 -0.503,-13.076l-0.006,-0.188l-0.006,-0.175l-2.406,0c-0.155,5.792 -0.317,11.555 -0.625,17.337c-0.092,1.732 -0.187,3.467 -0.371,5.189c-0.061,0.572 -0.109,1.15 -0.271,1.702c-0.008,0.026 -0.016,0.051 -0.024,0.076c-0.006,0.017 -0.012,0.034 -0.018,0.051c-0.068,0.182 -0.194,0.365 -0.395,0.414c-0.186,0.045 -0.389,-0.041 -0.506,-0.209c-0.125,-0.179 -0.173,-0.402 -0.22,-0.622c-0.128,-0.59 -0.192,-1.195 -0.256,-1.798c-0.249,-2.349 -0.379,-4.718 -0.51,-7.087c-0.273,-4.973 -0.467,-9.944 -0.647,-14.915l-0.005,-0.138l-2.279,0c-0.165,5.926 -0.337,11.819 -0.65,17.745c-0.102,1.916 -0.201,3.825 -0.413,5.743c-0.062,0.557 -0.107,1.129 -0.28,1.655c-0.06,0.181 -0.157,0.364 -0.336,0.444c-0.21,0.093 -0.472,0.003 -0.605,-0.217c-0.156,-0.255 -0.197,-0.569 -0.249,-0.87c-0.137,-0.796 -0.208,-1.6 -0.278,-2.405c-0.252,-2.882 -0.39,-5.769 -0.524,-8.656c-0.202,-4.352 -0.359,-8.717 -0.502,-13.076l-0.007,-0.188l-0.005,-0.175l-2.298,0c-0.155,5.792 -0.317,11.555 -0.625,17.337c-0.093,1.741 -0.187,3.481 -0.374,5.217c-0.066,0.609 -0.102,1.244 -0.31,1.801c-0.068,0.183 -0.193,0.365 -0.395,0.414c-0.186,0.045 -0.39,-0.043 -0.506,-0.209c-0.125,-0.179 -0.173,-0.402 -0.22,-0.622c-0.126,-0.581 -0.189,-1.176 -0.253,-1.769c-0.253,-2.37 -0.382,-4.74 -0.513,-7.116c-0.273,-4.974 -0.467,-9.948 -0.647,-14.915l-0.005,-0.138l-2.279,0c-0.164,5.883 -0.338,11.841 -0.65,17.745c-0.102,1.912 -0.199,3.808 -0.413,5.743c-0.065,0.579 -0.099,1.176 -0.302,1.717c-0.061,0.16 -0.161,0.319 -0.326,0.387c-0.211,0.087 -0.468,-0.012 -0.597,-0.227c-0.157,-0.264 -0.198,-0.586 -0.251,-0.902c-0.134,-0.792 -0.205,-1.597 -0.275,-2.403c-0.253,-2.908 -0.392,-5.826 -0.527,-8.753c-0.202,-4.374 -0.359,-8.756 -0.503,-13.132l-0.005,-0.175l-2.679,0l-0.081,-0.008c-0.078,-0.025 -0.154,-0.057 -0.21,-0.116c-0.038,-0.039 -0.067,-0.085 -0.087,-0.136c-0.025,-0.067 -0.021,-0.087 -0.026,-0.158c0.17,-4.777 0.353,-9.567 0.623,-14.368c0.123,-2.195 0.244,-4.384 0.491,-6.587c0.068,-0.608 0.126,-1.22 0.29,-1.811c0.064,-0.228 0.156,-0.473 0.369,-0.578c0.184,-0.091 0.421,-0.042 0.565,0.124c0.153,0.175 0.204,0.412 0.254,0.634c0.149,0.662 0.213,1.342 0.281,2.019c0.144,1.451 0.239,2.91 0.325,4.37c0.201,3.383 0.34,6.775 0.467,10.164c0.07,1.88 0.134,3.76 0.195,5.64c0,0 2.279,0.003 2.279,0.003c0.144,-4.828 0.303,-9.678 0.543,-14.475c0.11,-2.203 0.219,-4.405 0.448,-6.607c0.065,-0.625 0.12,-1.257 0.282,-1.86c0.063,-0.232 0.158,-0.481 0.374,-0.582c0.18,-0.085 0.409,-0.037 0.551,0.122c0.165,0.185 0.214,0.44 0.266,0.675c0.148,0.675 0.216,1.366 0.287,2.055c0.151,1.482 0.253,2.968 0.347,4.455c0.217,3.428 0.373,6.861 0.516,10.297c0.083,1.965 0.159,3.931 0.231,5.896l0.001,0.024l2.303,0c0.191,-5.336 0.389,-10.627 0.726,-15.936c0.099,-1.57 0.204,-3.144 0.383,-4.708c0.066,-0.583 0.125,-1.171 0.281,-1.732c0.058,-0.207 0.134,-0.425 0.314,-0.546c0.189,-0.126 0.459,-0.098 0.625,0.097c0.152,0.179 0.202,0.418 0.252,0.643c0.174,0.784 0.24,1.588 0.314,2.388c0.2,2.149 0.316,4.309 0.425,6.472c0.226,4.436 0.382,8.874 0.526,13.319c0,0 2.279,0.003 2.279,0.003c0.162,-5.409 0.334,-10.865 0.637,-16.254c0.091,-1.617 0.187,-3.235 0.357,-4.855c0.064,-0.616 0.118,-1.236 0.279,-1.833c0.063,-0.232 0.157,-0.481 0.374,-0.583c0.181,-0.084 0.408,-0.037 0.551,0.123c0.165,0.185 0.215,0.44 0.266,0.675c0.148,0.675 0.216,1.366 0.287,2.055c0.151,1.482 0.253,2.968 0.347,4.455c0.341,5.387 0.548,10.791 0.747,16.193l0.001,0.024l2.411,0c0.191,-5.308 0.386,-10.579 0.726,-15.936c0.1,-1.572 0.204,-3.144 0.383,-4.708c0.067,-0.583 0.126,-1.171 0.282,-1.732c0.057,-0.207 0.133,-0.425 0.313,-0.546c0.189,-0.126 0.459,-0.098 0.626,0.097c0.152,0.179 0.202,0.418 0.252,0.643c0.174,0.784 0.24,1.588 0.314,2.388c0.203,2.191 0.32,4.393 0.431,6.594c0.222,4.406 0.377,8.804 0.519,13.197c0,0 2.279,0.003 2.279,0.003c0.162,-5.409 0.334,-10.865 0.637,-16.254c0.091,-1.617 0.187,-3.235 0.357,-4.855c0.064,-0.616 0.119,-1.236 0.28,-1.833c0.062,-0.232 0.157,-0.481 0.373,-0.583c0.181,-0.084 0.409,-0.037 0.551,0.123c0.165,0.185 0.215,0.44 0.267,0.675c0.148,0.675 0.216,1.366 0.286,2.055c0.151,1.482 0.253,2.968 0.347,4.455c0.341,5.387 0.549,10.791 0.748,16.193l0.001,0.024l2.302,0c0.19,-5.293 0.388,-10.575 0.72,-15.844c0.101,-1.602 0.207,-3.205 0.389,-4.8c0.066,-0.579 0.127,-1.166 0.278,-1.719c0.058,-0.212 0.133,-0.436 0.317,-0.559c0.19,-0.127 0.462,-0.095 0.626,0.097c0.193,0.227 0.235,0.543 0.29,0.832c0.182,0.954 0.256,1.926 0.337,2.9c0.243,2.927 0.378,5.863 0.507,8.805c0.15,3.429 0.272,6.858 0.382,10.285c0,0 2.279,0.003 2.279,0.003c0.162,-5.4 0.333,-10.813 0.632,-16.16c0.092,-1.636 0.189,-3.276 0.356,-4.894c0.066,-0.633 0.12,-1.272 0.286,-1.888c0.062,-0.231 0.156,-0.481 0.373,-0.583c0.181,-0.084 0.41,-0.035 0.551,0.123c0.165,0.185 0.215,0.439 0.267,0.675c0.152,0.696 0.221,1.408 0.293,2.12c0.147,1.459 0.247,2.925 0.34,4.39c0.217,3.427 0.373,6.861 0.517,10.297c0.082,1.965 0.158,3.931 0.231,5.896l0.001,0.024l2.68,0l0.08,0.008c0.026,0.008 0.052,0.016 0.077,0.024Zm-45.862,0.776c0.184,5.633 0.38,11.27 0.69,16.906c0.102,1.864 0.212,3.73 0.386,5.582c0.029,0.306 0.061,0.613 0.096,0.919l0.001,0.007c0.146,-1.308 0.231,-2.627 0.311,-3.943c0.236,-3.888 0.378,-7.784 0.51,-11.669c0.088,-2.599 0.166,-5.199 0.238,-7.798l0.001,-0.004l-2.233,0Zm24.656,0c0.185,5.637 0.38,11.27 0.69,16.906c0.103,1.864 0.212,3.73 0.387,5.582c0.029,0.306 0.06,0.613 0.096,0.919l0,0.007c0.146,-1.312 0.231,-2.627 0.311,-3.943c0.24,-3.941 0.383,-7.893 0.516,-11.841c0.086,-2.542 0.162,-5.084 0.233,-7.626l0,-0.004l-2.233,0Zm-12.382,0c0.184,5.633 0.38,11.27 0.69,16.906c0.102,1.863 0.212,3.73 0.386,5.582c0.029,0.306 0.061,0.613 0.096,0.919l0.001,0.007c0.146,-1.308 0.231,-2.627 0.311,-3.943c0.239,-3.941 0.382,-7.893 0.516,-11.841c0.086,-2.542 0.162,-5.084 0.232,-7.626l0.001,-0.004l-2.233,0Zm24.656,0c0.186,5.665 0.382,11.331 0.696,17.016c0.102,1.839 0.21,3.677 0.384,5.503c0.028,0.296 0.058,0.592 0.093,0.888l0,0.007c0.146,-1.311 0.231,-2.627 0.311,-3.943c0.236,-3.882 0.378,-7.773 0.51,-11.669c0.089,-2.599 0.166,-5.199 0.239,-7.798l0,-0.004l-2.233,0Zm-30.802,0c0.197,5.44 0.405,10.879 0.725,16.316c0.106,1.793 0.218,3.585 0.396,5.384c0.03,0.304 0.063,0.609 0.1,0.913l0,0.003c0.142,-1.262 0.224,-2.529 0.301,-3.798c0.231,-3.799 0.366,-7.611 0.491,-11.426c0.081,-2.463 0.153,-4.926 0.219,-7.389l0,-0.003l-2.232,0Zm12.274,0c0.197,5.437 0.405,10.879 0.725,16.316c0.106,1.797 0.219,3.596 0.396,5.384c0.03,0.304 0.063,0.609 0.1,0.913l0,0.003c0.142,-1.262 0.224,-2.529 0.301,-3.798c0.231,-3.801 0.366,-7.616 0.491,-11.426c0.081,-2.463 0.153,-4.926 0.219,-7.389l0,-0.003l-2.232,0Zm12.383,0c0.195,5.403 0.401,10.789 0.719,16.211c0.108,1.852 0.223,3.703 0.408,5.55c0.028,0.284 0.059,0.568 0.093,0.852l0.001,0.003c0.141,-1.26 0.223,-2.528 0.3,-3.798c0.231,-3.799 0.366,-7.611 0.492,-11.426c0.081,-2.463 0.152,-4.928 0.218,-7.389l0,-0.003l-2.231,0Zm12.274,0c0.198,5.475 0.406,10.938 0.731,16.421c0.104,1.759 0.215,3.515 0.39,5.279c0.03,0.304 0.062,0.609 0.099,0.913l0.001,0.003c0.141,-1.261 0.223,-2.529 0.3,-3.798c0.228,-3.747 0.362,-7.495 0.486,-11.255c0.083,-2.52 0.157,-5.04 0.224,-7.56l0,-0.003l-2.231,0Zm-2.034,-22.281c-0.144,1.223 -0.228,2.45 -0.308,3.679c-0.232,3.603 -0.371,7.205 -0.502,10.814c-0.083,2.306 -0.158,4.613 -0.227,6.92l-0.002,0.06l2.23,0c-0.19,-5.168 -0.393,-10.402 -0.712,-15.617c-0.101,-1.661 -0.21,-3.318 -0.379,-4.972c-0.029,-0.284 -0.06,-0.568 -0.095,-0.851c0,0 -0.004,-0.041 -0.005,-0.033Zm-6.014,0.533c-0.15,1.19 -0.241,2.385 -0.327,3.581c-0.253,3.535 -0.412,7.087 -0.562,10.639c-0.093,2.22 -0.178,4.439 -0.258,6.659l-0.002,0.061l2.229,0c-0.165,-5.111 -0.339,-10.172 -0.629,-15.232c-0.093,-1.622 -0.192,-3.245 -0.354,-4.865c-0.028,-0.282 -0.058,-0.563 -0.093,-0.844c0,0 0.001,-0.034 -0.004,0.001Zm-6.26,-0.533c-0.144,1.223 -0.228,2.45 -0.308,3.679c-0.232,3.603 -0.371,7.205 -0.502,10.814c-0.083,2.306 -0.158,4.613 -0.227,6.92l-0.002,0.06l2.23,0c-0.19,-5.155 -0.392,-10.37 -0.712,-15.617c-0.12,-1.961 -0.237,-3.93 -0.477,-5.848c0,0 -0.001,-0.013 -0.002,-0.008Zm-6.014,0.533c-0.147,1.161 -0.237,2.33 -0.321,3.5c-0.25,3.472 -0.408,6.956 -0.556,10.449c-0.099,2.309 -0.187,4.619 -0.27,6.93l-0.002,0.061l2.229,0c-0.165,-5.112 -0.339,-10.172 -0.629,-15.232c-0.109,-1.909 -0.215,-3.828 -0.447,-5.709c0,0 0.001,-0.034 -0.004,0.001Zm-6.368,-0.533c-0.144,1.223 -0.229,2.45 -0.308,3.679c-0.232,3.603 -0.372,7.205 -0.502,10.814c-0.084,2.306 -0.158,4.613 -0.227,6.92l-0.002,0.06l2.23,0c-0.19,-5.155 -0.392,-10.37 -0.712,-15.617c-0.12,-1.961 -0.238,-3.93 -0.478,-5.848c0,0 0,-0.013 -0.001,-0.008Zm-6.014,0.533c-0.147,1.161 -0.237,2.33 -0.321,3.5c-0.251,3.477 -0.409,6.968 -0.557,10.449c-0.098,2.309 -0.186,4.619 -0.269,6.93l-0.003,0.061l2.23,0c-0.165,-5.112 -0.34,-10.172 -0.629,-15.232c-0.11,-1.909 -0.216,-3.828 -0.448,-5.709c0,0 0.001,-0.034 -0.003,0.001Zm-6.26,-0.533c-0.145,1.223 -0.229,2.45 -0.308,3.679c-0.23,3.564 -0.368,7.121 -0.497,10.678c-0.086,2.352 -0.162,4.704 -0.232,7.056l-0.002,0.06l2.23,0c-0.191,-5.168 -0.394,-10.402 -0.712,-15.617c-0.12,-1.961 -0.238,-3.93 -0.478,-5.848c0,0 0,-0.013 -0.001,-0.008Zm-6.014,0.533c-0.147,1.16 -0.237,2.33 -0.321,3.5c-0.251,3.475 -0.408,6.958 -0.557,10.449c-0.098,2.309 -0.186,4.619 -0.269,6.93l-0.003,0.061l2.23,0c-0.165,-5.111 -0.34,-10.172 -0.629,-15.232c-0.11,-1.911 -0.217,-3.837 -0.448,-5.709c0,0 0.001,-0.034 -0.003,0.001Z"/></svg>