<?xml version="1.0" encoding="UTF-8" standalone="no"?><!DOCTYPE svg PUBLIC "-//W3C//DTD SVG 1.1//EN" "http://www.w3.org/Graphics/SVG/1.1/DTD/svg11.dtd"><svg width="100%" height="100%" viewBox="0 0 52 52" version="1.1" xmlns="http://www.w3.org/2000/svg" xmlns:xlink="http://www.w3.org/1999/xlink" xml:space="preserve" xmlns:serif="http://www.serif.com/" style="fill-rule:evenodd;clip-rule:evenodd;stroke-linejoin:round;stroke-miterlimit:2;"><path d="M50.755,25.239c0.062,0.035 0.082,0.04 0.133,0.092c0.074,0.078 0.116,0.188 0.112,0.297c-0.003,0.058 -0.024,0.128 -0.038,0.183c-0.702,2.823 -1.452,5.61 -2.292,8.367c-0.05,0.165 -0.101,0.331 -0.152,0.496c-0.858,2.777 -1.798,5.515 -2.959,8.162c-0.803,1.831 -1.701,3.636 -2.884,5.234c-0.58,0.784 -1.227,1.519 -2.029,2.09c-0.674,0.48 -1.471,0.819 -2.3,0.839c-0.53,0.013 -1.061,-0.104 -1.546,-0.314c-0.992,-0.431 -1.795,-1.2 -2.474,-2.019c-0.7,-0.847 -1.291,-1.783 -1.825,-2.746c-1.089,-1.964 -1.952,-4.046 -2.729,-6.151c-1.649,-4.461 -2.911,-9.068 -4.054,-13.694l-0.015,-0.06l-24.299,0l-0.08,-0.008c-0.069,-0.022 -0.089,-0.022 -0.149,-0.063c-0.11,-0.076 -0.179,-0.21 -0.175,-0.346c0.003,-0.086 0.034,-0.176 0.057,-0.275c0.976,-4.105 2.057,-8.186 3.437,-12.182c0.845,-2.448 1.791,-4.875 3.038,-7.133c0.836,-1.512 1.801,-3.002 3.164,-4.042c0.691,-0.527 1.513,-0.914 2.387,-0.961c0.554,-0.03 1.112,0.077 1.629,0.289c0.992,0.405 1.81,1.139 2.509,1.933c1.095,1.243 1.95,2.684 2.714,4.152c1.581,3.039 2.782,6.281 3.868,9.537c0.912,2.738 1.727,5.511 2.486,8.291l24.307,0l0.081,0.008c0.026,0.008 0.052,0.016 0.078,0.024Zm-24.22,0.776c1.04,4.199 2.182,8.369 3.628,12.46c0.844,2.387 1.78,4.754 2.998,6.97c0.589,1.07 1.243,2.112 2.06,3.022c0.574,0.638 1.23,1.221 2.028,1.529c0.553,0.213 1.166,0.256 1.748,0.093c0.706,-0.197 1.315,-0.64 1.831,-1.125c0.723,-0.68 1.319,-1.492 1.857,-2.338c1.096,-1.725 1.948,-3.6 2.715,-5.494c1.498,-3.704 2.657,-7.541 3.71,-11.409c0.335,-1.23 0.656,-2.464 0.967,-3.699l0.002,-0.009l-23.544,0Zm-13.273,-24.207c-0.883,0.005 -1.722,0.474 -2.388,1.056c-0.889,0.777 -1.58,1.757 -2.194,2.773c-0.981,1.62 -1.753,3.359 -2.448,5.121c-1.397,3.542 -2.463,7.195 -3.424,10.874c-0.31,1.188 -0.606,2.38 -0.893,3.575l23.537,0c-1.222,-4.46 -2.564,-8.898 -4.297,-13.192c-0.754,-1.867 -1.582,-3.713 -2.589,-5.454c-0.653,-1.13 -1.377,-2.227 -2.29,-3.166c-0.782,-0.806 -1.716,-1.526 -2.868,-1.584c-0.049,-0.002 -0.098,-0.003 -0.146,-0.003Z"/></svg>