<?xml version="1.0" encoding="UTF-8" standalone="no"?><!DOCTYPE svg PUBLIC "-//W3C//DTD SVG 1.1//EN" "http://www.w3.org/Graphics/SVG/1.1/DTD/svg11.dtd"><svg width="100%" height="100%" viewBox="0 0 52 52" version="1.1" xmlns="http://www.w3.org/2000/svg" xmlns:xlink="http://www.w3.org/1999/xlink" xml:space="preserve" xmlns:serif="http://www.serif.com/" style="fill-rule:evenodd;clip-rule:evenodd;stroke-linejoin:round;stroke-miterlimit:2;"><path d="M39.197,1.579c0.081,0.015 0.09,0.022 0.127,0.04c0.179,0.089 0.251,0.311 0.285,0.505c0.071,0.418 0.093,0.844 0.12,1.269c0.182,2.783 0.232,5.57 0.301,8.364c0.105,4.279 0.181,8.551 0.25,12.813l0.732,0c0.083,-5.514 0.168,-11.054 0.328,-16.607c0.054,-1.843 0.097,-3.699 0.231,-5.516c0.024,-0.322 0.043,-0.647 0.105,-0.959c0.02,-0.1 0.046,-0.201 0.103,-0.286c0.09,-0.135 0.358,-0.258 0.566,-0.135c0.222,0.13 0.259,0.449 0.292,0.727c0.102,0.839 0.132,1.685 0.173,2.528c0.157,3.311 0.234,6.635 0.313,9.959c0.082,3.427 0.15,6.848 0.213,10.273l0,0.016l0.745,0c0.095,-5.302 0.193,-10.602 0.361,-15.919c0.059,-1.846 0.108,-3.69 0.245,-5.528c0.024,-0.333 0.047,-0.669 0.104,-0.998c0.024,-0.144 0.057,-0.291 0.149,-0.399c0.148,-0.174 0.45,-0.204 0.628,-0.019c0.143,0.15 0.166,0.39 0.193,0.61c0.101,0.798 0.128,1.608 0.166,2.418c0.093,1.976 0.148,3.951 0.2,5.927c0.121,4.633 0.203,9.271 0.277,13.908l0.733,0c0.083,-5.574 0.169,-11.138 0.331,-16.698c0.05,-1.712 0.096,-3.42 0.208,-5.136c0.028,-0.434 0.04,-0.874 0.134,-1.293c0.011,-0.049 0.025,-0.097 0.043,-0.144c0,0 0.034,-0.075 0.062,-0.112c0.147,-0.202 0.485,-0.243 0.667,-0.025c0.041,0.048 0.07,0.105 0.091,0.164c0,0 0.034,0.11 0.05,0.201c0.092,0.503 0.111,1.018 0.143,1.534c0.119,1.911 0.176,3.829 0.235,5.748c0.161,5.239 0.263,10.491 0.359,15.745l0.001,0.016l1.135,0l0.08,0.008c0.067,0.021 0.087,0.022 0.146,0.062c0.089,0.059 0.152,0.155 0.171,0.26c0.005,0.026 0.005,0.053 0.007,0.08c-0.079,5.928 -0.16,11.815 -0.317,17.719c-0.053,1.981 -0.093,3.96 -0.231,5.939c-0.025,0.361 -0.04,0.726 -0.116,1.077c-0.031,0.145 -0.095,0.293 -0.227,0.375c-0.109,0.067 -0.244,0.086 -0.378,0.032c-0.059,-0.024 -0.156,-0.091 -0.214,-0.191c-0.091,-0.158 -0.104,-0.35 -0.128,-0.539c-0.097,-0.799 -0.127,-1.608 -0.166,-2.417c-0.172,-3.585 -0.25,-7.179 -0.334,-10.768c-0.083,-3.608 -0.154,-7.218 -0.219,-10.829l-0.733,0c-0.083,6.01 -0.17,12.029 -0.333,18.06c-0.052,1.925 -0.098,3.847 -0.219,5.781c-0.024,0.382 -0.047,0.766 -0.1,1.146c-0.018,0.131 -0.036,0.264 -0.095,0.384c-0.122,0.247 -0.431,0.319 -0.637,0.164c-0.008,-0.007 -0.017,-0.014 -0.025,-0.021c-0.155,-0.136 -0.183,-0.368 -0.211,-0.576c-0.064,-0.486 -0.09,-0.977 -0.118,-1.468c-0.114,-1.963 -0.168,-3.924 -0.224,-5.884c-0.111,-3.87 -0.188,-7.728 -0.259,-11.586c-0.037,-2 -0.071,-4 -0.104,-6l-0.742,0c-0.063,4.699 -0.133,9.386 -0.234,14.079c-0.06,2.745 -0.114,5.485 -0.252,8.221c-0.029,0.561 -0.055,1.121 -0.119,1.679c-0.02,0.184 -0.032,0.366 -0.11,0.535c0,0 -0.058,0.111 -0.125,0.166c-0.136,0.11 -0.342,0.127 -0.496,0.026c-0.042,-0.028 -0.116,-0.097 -0.158,-0.184c-0.085,-0.175 -0.097,-0.376 -0.119,-0.576c-0.134,-1.172 -0.163,-2.353 -0.211,-3.53c-0.148,-3.65 -0.231,-7.306 -0.313,-10.961c-0.07,-3.155 -0.131,-6.306 -0.188,-9.455l-0.733,0c-0.084,6.087 -0.172,12.193 -0.339,18.277c-0.054,1.99 -0.094,3.98 -0.24,5.962c-0.023,0.314 -0.041,0.632 -0.104,0.934c-0.012,0.058 -0.028,0.116 -0.051,0.171c0,0 -0.197,0.397 -0.561,0.242c-0.12,-0.051 -0.157,-0.108 -0.194,-0.165c-0.019,-0.029 -0.023,-0.039 -0.033,-0.061c-0.086,-0.184 -0.097,-0.398 -0.12,-0.609c-0.127,-1.187 -0.156,-2.38 -0.202,-3.564c-0.205,-5.302 -0.293,-10.579 -0.389,-15.855c-0.033,-1.777 -0.063,-3.554 -0.092,-5.332l-0.796,0c-0.077,5.787 -0.158,11.562 -0.311,17.321c-0.05,1.859 -0.096,3.715 -0.208,5.57c-0.027,0.463 -0.044,0.93 -0.126,1.381c-0.015,0.079 -0.033,0.159 -0.064,0.231c0,0 -0.018,0.039 -0.032,0.061c-0.07,0.115 -0.178,0.203 -0.346,0.211c-0.178,0.008 -0.347,-0.109 -0.419,-0.281c-0.1,-0.237 -0.105,-0.505 -0.131,-0.775c-0.101,-1.07 -0.139,-2.15 -0.183,-3.228c-0.155,-3.774 -0.239,-7.542 -0.323,-11.318c-0.067,-3.058 -0.126,-6.115 -0.182,-9.173l-0.732,0c-0.083,6.004 -0.171,12.029 -0.333,18.06c-0.056,2.044 -0.095,4.085 -0.244,6.138c-0.023,0.324 -0.041,0.652 -0.105,0.966c-0.035,0.169 -0.105,0.344 -0.285,0.421c-0.149,0.065 -0.35,0.034 -0.476,-0.103c-0.128,-0.14 -0.152,-0.351 -0.177,-0.544c-0.1,-0.755 -0.124,-1.514 -0.161,-2.272c-0.179,-3.701 -0.25,-7.418 -0.331,-11.145c-0.083,-3.843 -0.151,-7.687 -0.214,-11.521l-0.742,0c-0.076,5.748 -0.157,11.484 -0.308,17.213c-0.05,1.874 -0.096,3.746 -0.207,5.628c-0.028,0.472 -0.046,0.946 -0.127,1.411c-0.014,0.08 -0.03,0.16 -0.06,0.235l-0.011,0.025c-0.082,0.179 -0.286,0.308 -0.502,0.248c-0.12,-0.032 -0.169,-0.082 -0.22,-0.145c-0.107,-0.132 -0.132,-0.321 -0.157,-0.503c-0.095,-0.688 -0.121,-1.388 -0.158,-2.087c-0.158,-3.047 -0.229,-6.086 -0.305,-9.125c-0.107,-4.299 -0.192,-8.6 -0.269,-12.9l-0.733,0c-0.085,6.144 -0.173,12.329 -0.345,18.489c-0.054,1.923 -0.091,3.838 -0.236,5.771c-0.022,0.3 -0.041,0.604 -0.099,0.894c-0.031,0.157 -0.093,0.316 -0.231,0.402c-0.112,0.07 -0.246,0.089 -0.384,0.031c-0.136,-0.058 -0.172,-0.123 -0.211,-0.194c-0.105,-0.189 -0.112,-0.416 -0.136,-0.642c-0.075,-0.693 -0.105,-1.389 -0.139,-2.085c-0.124,-2.573 -0.188,-5.147 -0.251,-7.716c-0.124,-4.987 -0.212,-9.966 -0.293,-14.95l-0.835,0c-0.078,5.895 -0.159,11.758 -0.32,17.643c-0.052,1.899 -0.09,3.794 -0.228,5.701c-0.023,0.327 -0.04,0.655 -0.106,0.975c-0.04,0.194 -0.144,0.396 -0.357,0.445c-0.075,0.018 -0.161,0.017 -0.253,-0.02c-0.065,-0.027 -0.164,-0.1 -0.219,-0.202c-0.096,-0.177 -0.106,-0.389 -0.13,-0.596c-0.101,-0.888 -0.133,-1.785 -0.173,-2.676c-0.155,-3.393 -0.233,-6.781 -0.313,-10.173c-0.086,-3.696 -0.158,-7.396 -0.225,-11.097l-0.733,0c-0.09,6.52 -0.177,13.067 -0.377,19.6c-0.048,1.555 -0.088,3.113 -0.204,4.66c-0.022,0.3 -0.041,0.604 -0.099,0.894c-0.031,0.156 -0.093,0.315 -0.23,0.401c-0.12,0.076 -0.271,0.088 -0.405,0.023c-0.063,-0.031 -0.19,-0.143 -0.239,-0.298c-0.075,-0.239 -0.087,-0.496 -0.11,-0.751c-0.107,-1.194 -0.144,-2.389 -0.189,-3.58c-0.176,-4.656 -0.262,-9.312 -0.35,-13.967c-0.044,-2.327 -0.084,-4.655 -0.122,-6.982l-0.742,0c-0.079,5.896 -0.16,11.758 -0.321,17.643c-0.051,1.899 -0.09,3.794 -0.228,5.701c-0.023,0.327 -0.04,0.657 -0.106,0.975c-0.032,0.155 -0.096,0.31 -0.232,0.394c-0.089,0.055 -0.209,0.073 -0.305,0.053c-0.098,-0.02 -0.15,-0.058 -0.196,-0.101c-0.15,-0.136 -0.179,-0.363 -0.206,-0.564c-0.1,-0.727 -0.125,-1.462 -0.162,-2.195c-0.129,-2.523 -0.196,-5.041 -0.262,-7.558c-0.127,-4.778 -0.221,-9.561 -0.307,-14.348l-0.733,0c-0.083,6.043 -0.171,12.115 -0.336,18.169c-0.051,1.89 -0.098,3.782 -0.216,5.672c-0.028,0.44 -0.042,0.885 -0.128,1.314c-0.031,0.155 -0.092,0.314 -0.23,0.4c-0.124,0.078 -0.305,0.078 -0.425,0.012c-0.105,-0.058 -0.124,-0.1 -0.152,-0.143c-0.091,-0.139 -0.11,-0.315 -0.133,-0.486c-0.1,-0.755 -0.124,-1.514 -0.16,-2.272c-0.18,-3.714 -0.251,-7.425 -0.331,-11.145c-0.083,-3.84 -0.151,-7.682 -0.214,-11.521l-0.796,0c-0.079,5.903 -0.16,11.777 -0.32,17.643c-0.05,1.815 -0.094,3.631 -0.211,5.439c-0.028,0.438 -0.033,0.887 -0.138,1.301c-0.047,0.181 -0.155,0.35 -0.367,0.386c-0.132,0.023 -0.278,-0.036 -0.352,-0.104c-0.15,-0.136 -0.179,-0.361 -0.206,-0.564c-0.099,-0.724 -0.125,-1.46 -0.162,-2.195c-0.183,-3.593 -0.259,-7.205 -0.343,-10.809c-0.085,-3.596 -0.155,-7.191 -0.22,-10.791l-0.006,-0.306l-0.733,0c-0.084,6.111 -0.172,12.206 -0.339,18.277c-0.05,1.844 -0.098,3.694 -0.21,5.516c-0.027,0.442 -0.045,0.889 -0.123,1.323c-0.023,0.128 -0.057,0.258 -0.141,0.356c-0.11,0.127 -0.303,0.19 -0.48,0.115c-0.224,-0.094 -0.291,-0.385 -0.325,-0.637c-0.105,-0.777 -0.128,-1.564 -0.165,-2.347c-0.181,-3.789 -0.253,-7.578 -0.334,-11.366c-0.08,-3.743 -0.147,-7.492 -0.208,-11.237l-0.742,0c-0.078,5.903 -0.16,11.777 -0.32,17.643c-0.049,1.798 -0.093,3.592 -0.207,5.392c-0.029,0.45 -0.033,0.906 -0.14,1.339c-0.044,0.179 -0.156,0.347 -0.345,0.39c-0.094,0.022 -0.207,0.006 -0.288,-0.037c-0.044,-0.023 -0.13,-0.092 -0.176,-0.172c-0.105,-0.182 -0.114,-0.404 -0.139,-0.623c-0.075,-0.672 -0.107,-1.349 -0.141,-2.026c-0.183,-3.603 -0.258,-7.205 -0.343,-10.809c-0.084,-3.595 -0.155,-7.193 -0.22,-10.791l-0.006,-0.306l-0.732,0c-0.091,6.583 -0.178,13.129 -0.381,19.695c-0.042,1.367 -0.084,2.729 -0.169,4.098c-0.029,0.47 -0.034,0.946 -0.14,1.408c-0.032,0.14 -0.097,0.278 -0.221,0.355c-0.182,0.113 -0.444,0.063 -0.572,-0.125c-0.123,-0.18 -0.131,-0.421 -0.156,-0.651c-0.08,-0.722 -0.11,-1.449 -0.145,-2.177c-0.181,-3.792 -0.253,-7.578 -0.334,-11.366c-0.08,-3.743 -0.146,-7.489 -0.208,-11.237l-1.134,0c-0.07,-0.007 -0.09,-0.004 -0.156,-0.031c-0.099,-0.042 -0.18,-0.124 -0.219,-0.223c-0.027,-0.067 -0.023,-0.087 -0.029,-0.157c0.097,-5.414 0.196,-10.811 0.366,-16.223c0.059,-1.877 0.108,-3.75 0.247,-5.621c0.025,-0.33 0.047,-0.662 0.102,-0.988c0.027,-0.157 0.062,-0.317 0.169,-0.428c0.149,-0.156 0.418,-0.178 0.59,-0.019c0.131,0.119 0.167,0.312 0.194,0.488c0.097,0.621 0.118,1.255 0.152,1.889c0.121,2.233 0.178,4.473 0.236,6.716c0.12,4.593 0.201,9.189 0.275,13.789l0.732,0c0.083,-5.516 0.168,-11.066 0.329,-16.607c0.053,-1.843 0.096,-3.699 0.231,-5.516c0.026,-0.352 0.037,-0.712 0.124,-1.048c0.04,-0.153 0.131,-0.302 0.288,-0.362c0.093,-0.036 0.197,-0.032 0.265,-0.012c0.189,0.055 0.299,0.251 0.34,0.454c0.054,0.262 0.074,0.532 0.097,0.8c0.125,1.488 0.17,2.985 0.223,4.478c0.14,3.915 0.226,7.822 0.308,11.729c0.043,2.023 0.082,4.045 0.119,6.068l0,0.016l0.745,0c0.095,-5.303 0.193,-10.604 0.362,-15.919c0.058,-1.839 0.106,-3.67 0.244,-5.528c0.024,-0.333 0.046,-0.666 0.104,-0.999c0.026,-0.15 0.06,-0.306 0.166,-0.417c0.151,-0.158 0.428,-0.169 0.591,-0.019c0.164,0.15 0.185,0.405 0.214,0.629c0.1,0.798 0.128,1.608 0.166,2.418c0.092,1.979 0.147,3.954 0.199,5.927c0.122,4.633 0.203,9.275 0.278,13.908l0.732,0c0.083,-5.519 0.168,-11.075 0.328,-16.607c0.053,-1.824 0.096,-3.65 0.228,-5.477c0.026,-0.351 0.042,-0.706 0.118,-1.043c0.038,-0.17 0.126,-0.34 0.298,-0.406c0.07,-0.028 0.191,-0.033 0.265,-0.012c0.155,0.045 0.267,0.186 0.314,0.346c0.085,0.29 0.097,0.6 0.123,0.908c0.125,1.488 0.169,2.985 0.223,4.478c0.14,3.914 0.226,7.822 0.308,11.729c0.042,2.023 0.081,4.045 0.119,6.068l0,0.016l0.799,0c0.095,-5.311 0.194,-10.616 0.361,-15.919c0.059,-1.843 0.109,-3.69 0.245,-5.528c0.028,-0.382 0.041,-0.769 0.132,-1.137c0.04,-0.161 0.132,-0.32 0.291,-0.382c0.215,-0.084 0.481,0.039 0.569,0.292c0.098,0.282 0.105,0.589 0.131,0.896c0.123,1.444 0.163,2.893 0.212,4.343c0.199,5.83 0.289,11.63 0.382,17.435l0.733,0c0.083,-5.535 0.168,-11.054 0.328,-16.607c0.054,-1.856 0.096,-3.72 0.234,-5.555c0.025,-0.337 0.037,-0.674 0.12,-1c0.034,-0.137 0.1,-0.269 0.231,-0.344c0.151,-0.086 0.272,-0.069 0.386,-0.015c0.205,0.096 0.272,0.358 0.306,0.595c0.096,0.655 0.121,1.315 0.157,1.973c0.121,2.232 0.184,4.476 0.247,6.715c0.134,4.741 0.227,9.484 0.315,14.222l0,0.016l0.744,0c0.096,-5.327 0.195,-10.625 0.362,-15.919c0.058,-1.827 0.108,-3.654 0.241,-5.487c0.026,-0.349 0.049,-0.7 0.107,-1.039c0.03,-0.174 0.075,-0.357 0.221,-0.466c0.148,-0.11 0.366,-0.109 0.514,0.009c0.141,0.113 0.184,0.309 0.213,0.487c0.096,0.592 0.116,1.195 0.15,1.798c0.121,2.194 0.178,4.391 0.236,6.592c0.123,4.681 0.205,9.376 0.28,14.025l0.733,0c0.082,-5.532 0.168,-11.054 0.328,-16.607c0.053,-1.836 0.094,-3.663 0.231,-5.516c0.023,-0.314 0.042,-0.628 0.101,-0.94c0.026,-0.137 0.065,-0.276 0.163,-0.374c0.093,-0.093 0.281,-0.146 0.414,-0.108c0.141,0.041 0.201,0.113 0.252,0.2c0.098,0.166 0.112,0.368 0.136,0.569c0.101,0.84 0.132,1.685 0.172,2.528c0.097,2.042 0.158,4.088 0.215,6.134c0.132,4.702 0.224,9.387 0.311,14.098l0.001,0.016l0.836,0c0.096,-5.33 0.195,-10.625 0.362,-15.919c0.058,-1.83 0.108,-3.654 0.241,-5.487c0.026,-0.349 0.049,-0.7 0.107,-1.039c0.037,-0.212 0.111,-0.439 0.319,-0.521c0.014,-0.005 0.029,-0.01 0.044,-0.014c0.181,-0.049 0.389,0.04 0.485,0.215c0.084,0.152 0.1,0.333 0.123,0.512c0.101,0.803 0.128,1.611 0.166,2.418c0.091,1.938 0.146,3.876 0.196,5.81c0.124,4.676 0.206,9.354 0.281,14.025l0.732,0c0.083,-5.531 0.168,-11.04 0.329,-16.607c0.053,-1.836 0.094,-3.663 0.231,-5.516c0.024,-0.333 0.04,-0.667 0.112,-0.995c0.041,-0.188 0.141,-0.376 0.344,-0.43c0.216,-0.057 0.393,0.059 0.478,0.21c0.097,0.169 0.109,0.374 0.134,0.575c0.099,0.832 0.13,1.674 0.17,2.515c0.097,2.041 0.158,4.088 0.215,6.134c0.132,4.706 0.225,9.403 0.311,14.098l0.001,0.016l0.744,0c0.091,-5.065 0.188,-10.194 0.341,-15.26c0.055,-1.818 0.111,-3.633 0.217,-5.458c0.034,-0.574 0.055,-1.155 0.15,-1.718c0.018,-0.104 0.038,-0.21 0.084,-0.304c0,0 0.04,-0.076 0.084,-0.122c0.131,-0.138 0.322,-0.174 0.493,-0.089c0.23,0.116 0.277,0.429 0.31,0.686c0.075,0.584 0.103,1.173 0.134,1.76c0.091,1.678 0.142,3.355 0.19,5.029c0.15,5.162 0.237,10.31 0.321,15.476l0.732,0c0.083,-5.536 0.167,-11.04 0.329,-16.607c0.053,-1.828 0.095,-3.65 0.228,-5.477c0.026,-0.358 0.037,-0.719 0.123,-1.069c0.034,-0.139 0.092,-0.271 0.233,-0.352c0.276,-0.158 0.485,0.004 0.576,0.159c0.098,0.165 0.112,0.369 0.137,0.57c0.1,0.836 0.132,1.685 0.172,2.528c0.157,3.312 0.234,6.633 0.313,9.959c0.082,3.425 0.15,6.847 0.213,10.273l0,0.016l0.799,0c0.103,-5.735 0.205,-11.467 0.402,-17.148c0.054,-1.537 0.097,-3.076 0.228,-4.601c0.025,-0.293 0.04,-0.594 0.117,-0.869c0.049,-0.177 0.17,-0.341 0.37,-0.372c0.017,-0.002 0.034,-0.004 0.051,-0.005c0.056,-0.002 0.059,0.003 0.073,0.004Zm1.134,48.837c0,0 0,-0.001 0,0Zm9.209,-0.846c0,0 0,0 0,0Zm-18.428,0c0,0 0,0 0,0Zm12.303,0c0,0 0,0 0,0Zm-11.606,-0.001c0,0 -0.001,-0.001 0,0Zm14.611,-24.191c0.09,5.524 0.186,11.048 0.335,16.577c0.013,0.468 0.026,0.936 0.039,1.405l0.002,0.063c0.148,-5.442 0.231,-10.915 0.31,-16.396c0.008,-0.546 0.015,-1.093 0.023,-1.639l0,-0.01l-0.709,0Zm-12.304,0c0.098,5.977 0.2,11.979 0.375,17.982l0.002,0.063c0.071,-2.634 0.125,-5.275 0.173,-7.917c0.061,-3.372 0.113,-6.745 0.16,-10.118l0,-0.01l-0.71,0Zm-30.77,0c0.098,5.992 0.199,11.978 0.375,17.982l0.002,0.063c0.163,-6.005 0.249,-12.017 0.333,-18.035l0,-0.01l-0.71,0Zm6.125,0c0.098,5.987 0.199,11.976 0.375,17.982l0.002,0.063c0.072,-2.687 0.126,-5.381 0.175,-8.077c0.061,-3.319 0.111,-6.639 0.157,-9.958l0,-0.01l-0.709,0Zm12.304,0c0.097,5.956 0.198,11.917 0.371,17.878l0.003,0.104l0.002,0.063c0.164,-6.042 0.249,-12.032 0.333,-18.035l0,-0.01l-0.709,0Zm6.217,0c0.097,5.956 0.198,11.917 0.371,17.878l0.003,0.104l0.002,0.063c0.164,-6.042 0.249,-12.032 0.333,-18.035l0,-0.01l-0.709,0Zm-12.342,0c0.093,5.71 0.192,11.432 0.35,17.132c0.008,0.283 0.016,0.567 0.025,0.85l0.001,0.063c0.072,-2.644 0.125,-5.28 0.173,-7.917c0.062,-3.372 0.113,-6.745 0.16,-10.118l0,-0.01l-0.709,0Zm24.645,0c0.098,5.984 0.199,11.976 0.375,17.982l0.002,0.063c0.162,-6.008 0.249,-12.036 0.332,-18.035l0,-0.01l-0.709,0Zm-33.891,0c0.105,5.776 0.213,11.564 0.393,17.343l0.002,0.06c0.155,-5.792 0.236,-11.611 0.314,-17.395l0,-0.008l-0.709,0Zm36.949,0c0.104,5.744 0.211,11.484 0.39,17.244l0.003,0.099l0.002,0.06c0.14,-5.237 0.218,-10.501 0.292,-15.763c0.007,-0.544 0.015,-1.088 0.022,-1.632l0,-0.008l-0.709,0Zm-12.303,0c0.104,5.779 0.212,11.564 0.393,17.343l0.001,0.06c0.105,-3.919 0.172,-7.846 0.233,-11.766c0.03,-1.876 0.056,-3.752 0.081,-5.629l0,-0.008l-0.708,0Zm-18.521,0c0.104,5.756 0.212,11.507 0.39,17.244l0.003,0.099l0.002,0.06c0.071,-2.666 0.124,-5.339 0.171,-8.015c0.055,-3.126 0.101,-6.253 0.143,-9.38l0,-0.008l-0.709,0Zm6.179,0c0.105,5.787 0.213,11.564 0.393,17.343l0.002,0.06c0.155,-5.805 0.236,-11.609 0.314,-17.395l0,-0.008l-0.709,0Zm6.125,0c0.104,5.788 0.212,11.563 0.393,17.343l0.002,0.06c0.155,-5.805 0.236,-11.609 0.313,-17.395l0.001,-0.008l-0.709,0Zm12.341,0c0.098,5.376 0.201,10.744 0.356,16.112c0.011,0.377 0.023,0.755 0.034,1.132l0.005,0.159c0.154,-5.758 0.236,-11.585 0.314,-17.395l0,-0.008l-0.709,0Zm12.304,0c0.088,4.889 0.183,9.773 0.315,14.674c0.024,0.856 0.048,1.712 0.075,2.57l0.005,0.159c0.143,-5.366 0.223,-10.769 0.297,-16.165c0.006,-0.41 0.011,-0.82 0.017,-1.23l0,-0.008l-0.709,0Zm-1.211,-17.208c-0.156,5.474 -0.24,10.938 -0.322,16.4l0.708,0c-0.099,-5.419 -0.204,-10.848 -0.376,-16.281l-0.004,-0.106l-0.003,-0.104c-0.001,0.03 -0.002,0.06 -0.003,0.091Zm-3.011,0.324c-0.172,5.357 -0.271,10.718 -0.367,16.076l0.707,0c-0.086,-5.356 -0.176,-10.723 -0.338,-16.073l-0.001,-0.035c-0.001,0.011 -0.001,0.022 -0.001,0.032Zm-3.113,-0.324c-0.153,5.385 -0.238,10.791 -0.32,16.177l-0.003,0.223l0.708,0c-0.091,-5 -0.189,-9.962 -0.335,-14.936c-0.013,-0.448 -0.027,-0.896 -0.041,-1.345l-0.003,-0.106l-0.004,-0.103c-0.001,0.03 -0.001,0.06 -0.002,0.09Zm-3.012,0.324c-0.169,5.292 -0.268,10.57 -0.363,15.849l-0.004,0.227l0.708,0c-0.087,-5.341 -0.177,-10.714 -0.339,-16.073l-0.001,-0.035c0,0.011 -0.001,0.022 -0.001,0.032Zm-3.167,-0.324c-0.139,4.872 -0.22,9.751 -0.296,14.624c-0.009,0.592 -0.018,1.184 -0.027,1.776l0.708,0c-0.095,-5.21 -0.197,-10.425 -0.355,-15.624c-0.008,-0.254 -0.016,-0.509 -0.024,-0.763l-0.004,-0.104c0,0.03 -0.001,0.06 -0.002,0.091Zm-3.012,0.324c-0.172,5.354 -0.271,10.718 -0.367,16.076l0.708,0c-0.087,-5.351 -0.177,-10.723 -0.339,-16.073l-0.001,-0.035c0,0.011 -0.001,0.022 -0.001,0.032Zm-3.113,-0.324c-0.155,5.472 -0.241,10.936 -0.323,16.4l0.709,0c-0.1,-5.421 -0.205,-10.855 -0.377,-16.281l-0.003,-0.106l-0.003,-0.103c-0.001,0.03 -0.002,0.06 -0.003,0.09Zm-3.012,0.324c-0.171,5.366 -0.271,10.719 -0.367,16.076l0.708,0c-0.086,-5.359 -0.176,-10.723 -0.339,-16.073l-0.001,-0.035c0,0.011 0,0.022 -0.001,0.032Zm-3.205,-0.324c-0.155,5.472 -0.241,10.936 -0.323,16.4l0.709,0c-0.095,-5.169 -0.196,-10.337 -0.353,-15.512c-0.008,-0.291 -0.018,-0.583 -0.027,-0.875l-0.003,-0.103c-0.001,0.03 -0.002,0.06 -0.003,0.09Zm-3.012,0.324c-0.171,5.366 -0.271,10.719 -0.367,16.076l0.708,0c-0.081,-5.04 -0.168,-10.086 -0.311,-15.13c-0.008,-0.281 -0.016,-0.561 -0.024,-0.842l-0.003,-0.101l-0.002,-0.035c0,0.011 0,0.022 -0.001,0.032Zm-3.113,-0.324c-0.155,5.465 -0.24,10.931 -0.322,16.4l0.708,0c-0.1,-5.44 -0.204,-10.862 -0.376,-16.281l-0.004,-0.106l-0.003,-0.103c-0.001,0.03 -0.002,0.06 -0.003,0.09Zm-3.011,0.324c-0.172,5.371 -0.271,10.729 -0.367,16.076l0.707,0c-0.086,-5.362 -0.176,-10.723 -0.338,-16.073l-0.001,-0.035c-0.001,0.011 -0.001,0.022 -0.001,0.032Zm-3.167,-0.324c-0.154,5.389 -0.238,10.779 -0.32,16.177l-0.003,0.223l0.708,0c-0.1,-5.459 -0.206,-10.988 -0.383,-16.491c-0.001,0.03 -0.001,0.06 -0.002,0.091Zm-3.012,0.324c-0.172,5.351 -0.271,10.709 -0.367,16.076l0.708,0c-0.087,-5.361 -0.177,-10.722 -0.339,-16.073l-0.001,-0.035c0,0.011 -0.001,0.022 -0.001,0.032Zm-3.113,-0.324c-0.155,5.471 -0.241,10.93 -0.323,16.4l0.708,0c-0.1,-5.505 -0.206,-11.006 -0.382,-16.491c-0.001,0.03 -0.002,0.06 -0.003,0.091Zm-3.012,0.324c-0.169,5.291 -0.268,10.57 -0.363,15.849l-0.004,0.227l0.708,0c-0.087,-5.368 -0.177,-10.722 -0.339,-16.073l-0.001,-0.035c0,0.011 0,0.022 -0.001,0.032Z"/></svg>