<?xml version="1.0" encoding="UTF-8" standalone="no"?><!DOCTYPE svg PUBLIC "-//W3C//DTD SVG 1.1//EN" "http://www.w3.org/Graphics/SVG/1.1/DTD/svg11.dtd"><svg width="100%" height="100%" viewBox="0 0 52 52" version="1.1" xmlns="http://www.w3.org/2000/svg" xmlns:xlink="http://www.w3.org/1999/xlink" xml:space="preserve" xmlns:serif="http://www.serif.com/" style="fill-rule:evenodd;clip-rule:evenodd;stroke-linejoin:round;stroke-miterlimit:2;"><path d="M50.763,24.605c0.074,0.043 0.144,0.094 0.186,0.167c0.089,0.155 0.039,0.36 0.018,0.558c-0.4,3.721 -0.843,7.436 -1.402,11.143c-0.405,2.681 -0.855,5.358 -1.504,7.988c-0.305,1.233 -0.643,2.466 -1.152,3.632c-0.231,0.528 -0.495,1.052 -0.874,1.476c-0.398,0.447 -0.989,0.755 -1.609,0.49c-0.412,-0.176 -0.72,-0.527 -0.971,-0.885c-0.395,-0.565 -0.682,-1.2 -0.94,-1.843c-0.497,-1.237 -0.871,-2.523 -1.211,-3.814c-0.735,-2.79 -1.292,-5.629 -1.805,-8.478c-0.577,-3.207 -1.079,-6.434 -1.547,-9.655l0,-0.006l-11.573,0c-0.498,4.464 -1.045,8.881 -1.777,13.296c-0.406,2.452 -0.856,4.898 -1.496,7.279c-0.327,1.218 -0.681,2.434 -1.269,3.553c-0.221,0.42 -0.478,0.83 -0.829,1.133c-0.367,0.317 -0.883,0.477 -1.373,0.264c-0.422,-0.183 -0.728,-0.55 -0.976,-0.92c-0.395,-0.591 -0.677,-1.25 -0.931,-1.918c-0.599,-1.575 -1.015,-3.215 -1.396,-4.857c-0.945,-4.083 -1.605,-8.225 -2.211,-12.361c-0.265,-1.813 -0.514,-3.631 -0.752,-5.443l-0.003,-0.026l-11.963,0l-0.085,-0.009c-0.073,-0.024 -0.094,-0.025 -0.156,-0.072c-0.092,-0.069 -0.153,-0.178 -0.161,-0.294c-0.002,-0.029 0.002,-0.058 0.003,-0.086c0.521,-3.651 1.085,-7.278 1.779,-10.896c0.45,-2.348 0.944,-4.69 1.607,-6.993c0.301,-1.043 0.633,-2.081 1.073,-3.077c0.264,-0.596 0.564,-1.189 0.983,-1.679c0.291,-0.341 0.662,-0.637 1.11,-0.695c0.253,-0.033 0.512,0.018 0.744,0.134c0.394,0.198 0.69,0.548 0.933,0.908c0.59,0.873 0.951,1.885 1.275,2.875c0.749,2.289 1.244,4.663 1.693,7.025c0.754,3.966 1.327,7.974 1.85,12.009l0.005,0.042l11.57,0c0.451,-3.747 0.941,-7.447 1.57,-11.165c0.351,-2.079 0.741,-4.156 1.243,-6.201c0.296,-1.202 0.624,-2.399 1.074,-3.547c0.306,-0.783 0.633,-1.572 1.251,-2.176c0.292,-0.286 0.683,-0.501 1.097,-0.48c0.601,0.031 1.098,0.523 1.458,1.047c0.364,0.531 0.638,1.12 0.885,1.72c0.565,1.374 0.972,2.806 1.343,4.241c0.917,3.547 1.572,7.156 2.176,10.766c0.319,1.907 0.616,3.819 0.898,5.727l0.01,0.068l11.968,0l0.084,0.009c0.027,0.008 0.053,0.017 0.08,0.026Zm-36.583,0.773c0.558,4.257 1.171,8.526 1.941,12.751c0.456,2.502 0.955,5.004 1.651,7.457c0.326,1.151 0.683,2.307 1.22,3.362c0.185,0.363 0.389,0.724 0.678,1.006c0.135,0.133 0.3,0.263 0.484,0.242c0.179,-0.02 0.325,-0.155 0.444,-0.283c0.351,-0.377 0.577,-0.854 0.785,-1.332c0.404,-0.929 0.693,-1.903 0.955,-2.881c0.526,-1.97 0.916,-3.975 1.268,-5.986c0.826,-4.718 1.417,-9.482 1.952,-14.262l0.008,-0.074l-11.386,0Zm24.588,0c0.592,4.076 1.234,8.145 2.027,12.187c0.49,2.49 1.023,4.982 1.756,7.398c0.329,1.085 0.687,2.169 1.215,3.165c0.193,0.363 0.406,0.726 0.706,1.002c0.136,0.125 0.3,0.242 0.48,0.221c0.175,-0.02 0.315,-0.146 0.431,-0.266c0.339,-0.352 0.561,-0.808 0.763,-1.264c0.393,-0.886 0.671,-1.815 0.923,-2.749c0.783,-2.907 1.274,-5.898 1.72,-8.871c0.536,-3.576 0.964,-7.156 1.352,-10.749l0.008,-0.074l-11.381,0Zm-6.972,-23.57c-0.198,0.002 -0.37,0.147 -0.51,0.294c-0.202,0.212 -0.36,0.463 -0.503,0.721c-0.333,0.601 -0.578,1.25 -0.799,1.905c-0.414,1.225 -0.729,2.483 -1.013,3.745c-0.788,3.499 -1.33,7.048 -1.824,10.614c-0.252,1.817 -0.485,3.637 -0.704,5.459l-0.003,0.024l11.374,0c-0.613,-4.147 -1.29,-8.365 -2.166,-12.541c-0.466,-2.22 -0.973,-4.441 -1.689,-6.588c-0.306,-0.918 -0.634,-1.83 -1.137,-2.67c-0.2,-0.336 -0.424,-0.681 -0.752,-0.877c-0.083,-0.05 -0.176,-0.087 -0.274,-0.086Zm-24.085,0.566c-0.203,0.002 -0.382,0.144 -0.53,0.291c-0.334,0.334 -0.567,0.758 -0.779,1.186c-0.522,1.053 -0.882,2.183 -1.212,3.321c-0.72,2.478 -1.241,5.014 -1.718,7.549c-0.614,3.27 -1.127,6.549 -1.6,9.831l-0.002,0.018l11.372,0c-0.53,-4.089 -1.111,-8.144 -1.884,-12.159c-0.416,-2.16 -0.873,-4.315 -1.533,-6.402c-0.286,-0.904 -0.594,-1.803 -1.076,-2.64c-0.19,-0.331 -0.402,-0.665 -0.713,-0.877c-0.097,-0.066 -0.206,-0.118 -0.325,-0.118Z"/></svg>